<?xml version="1.0" standalone="no"?>
<!DOCTYPE svg PUBLIC "-//W3C//DTD SVG 20010904//EN"
 "http://www.w3.org/TR/2001/REC-SVG-20010904/DTD/svg10.dtd">
<svg version="1.0" xmlns="http://www.w3.org/2000/svg"
 width="150px" height="70px" viewBox="0 0 836.000000 376.000000"
 preserveAspectRatio="xMidYMid meet">

<g transform="translate(0.000000,376.000000) scale(0.100000,-0.100000)"
fill="#000000" stroke="none">
<path d="M5995 2808 c14 -29 25 -58 25 -64 0 -6 -92 -201 -205 -434 -113 -232
-205 -424 -205 -426 0 -2 31 -4 68 -4 68 0 69 0 93 37 52 80 133 102 399 110
l195 5 32 -74 32 -73 75 -3 75 -3 -110 233 c-61 128 -165 349 -231 491 l-121
257 -73 0 -73 0 24 -52z m203 -437 c56 -109 102 -202 102 -205 0 -3 -56 -6
-124 -6 -137 0 -212 -11 -269 -39 -21 -11 -37 -16 -35 -11 19 48 214 460 218
460 3 0 51 -90 108 -199z"/>
<path d="M3480 2360 l0 -480 65 0 65 0 0 214 c0 133 4 217 10 221 30 18 122
21 239 8 123 -14 253 -13 299 2 l22 7 0 -226 0 -226 65 0 65 0 0 480 0 480
-65 0 -65 0 0 -189 0 -189 -69 -12 c-57 -9 -95 -9 -207 4 -164 19 -207 19
-256 2 l-38 -14 0 199 0 199 -65 0 -65 0 0 -480z"/>
<path d="M4590 2532 c0 -180 5 -333 11 -367 38 -209 227 -322 487 -294 162 18
254 75 317 198 35 70 45 177 45 493 l0 278 -70 0 -70 0 0 -327 c0 -326 0 -328
-24 -380 -47 -99 -138 -139 -300 -131 -126 7 -191 43 -239 133 -21 38 -22 54
-25 373 l-3 332 -65 0 -64 0 0 -308z"/>
<path d="M6702 2823 c8 -10 33 -40 56 -67 l42 -49 0 -413 0 -414 65 0 65 0 2
332 3 332 275 -332 275 -332 67 0 68 0 0 480 0 480 -70 0 -70 0 -2 -369 -3
-368 -308 368 -307 369 -87 0 c-81 0 -85 -1 -71 -17z"/>
<path d="M1955 2764 c-35 -18 -84 -58 -189 -153 -90 -82 -110 -94 -204 -122
-37 -12 -82 -32 -100 -46 -18 -13 -103 -97 -190 -185 -175 -179 -276 -254
-413 -309 -114 -46 -331 -154 -459 -230 -132 -78 -141 -86 -59 -55 161 60 246
98 303 134 107 69 150 90 211 106 62 16 164 55 226 86 19 10 55 44 78 74 24
31 71 76 105 101 108 78 156 128 195 200 41 78 65 95 130 95 31 0 51 7 72 25
16 13 46 27 67 30 20 4 66 15 101 26 35 10 72 19 82 19 32 0 40 -32 27 -108
-18 -109 -8 -117 104 -83 35 11 74 22 88 25 24 5 25 9 23 58 -1 43 -14 76 -67
178 -74 143 -88 157 -131 134z"/>
<path d="M2081 2183 c-60 -65 -78 -99 -68 -127 3 -8 33 -29 66 -47 34 -19 61
-37 61 -41 0 -5 3 -8 8 -8 4 0 7 65 7 145 0 80 -3 145 -7 145 -3 0 -34 -30
-67 -67z"/>
<path d="M1250 1690 c-196 -17 -374 -41 -565 -76 -322 -59 -321 -60 78 -56
544 6 666 -14 982 -166 77 -37 200 -100 274 -140 l135 -73 55 13 56 14 0 97
c0 78 -3 101 -16 113 -15 13 -305 125 -452 174 -38 12 -67 24 -64 26 5 6 346
-51 445 -74 45 -11 83 -19 83 -18 5 6 3 94 -2 90 -4 -2 -9 0 -11 4 -3 9 -212
46 -353 63 -123 14 -516 20 -645 9z"/>
<path d="M3529 1431 c-46 -47 -41 -85 21 -146 59 -58 68 -100 23 -111 -15 -4
-34 -2 -45 5 -23 15 -25 14 -30 -19 -2 -20 3 -26 30 -33 46 -14 92 2 114 40
26 43 15 77 -44 140 -61 64 -64 98 -8 98 26 0 36 5 38 19 9 44 -57 48 -99 7z"/>
<path d="M4091 1443 c-45 -23 -71 -75 -71 -138 0 -97 31 -154 96 -175 49 -16
101 11 125 64 22 49 25 143 5 191 -26 62 -97 88 -155 58z m99 -65 c33 -54 25
-165 -14 -190 -21 -15 -63 -8 -82 13 -26 29 -27 143 -1 182 26 40 71 37 97 -5z"/>
<path d="M4630 1295 l0 -165 25 0 c23 0 24 3 27 73 l3 72 38 3 c31 3 37 7 37
27 0 20 -6 24 -37 27 -34 3 -38 6 -41 34 -3 33 13 44 66 44 17 0 22 6 22 25 0
24 -2 25 -70 25 l-70 0 0 -165z"/>
<path d="M5130 1436 c0 -19 6 -25 28 -28 l27 -3 3 -143 c3 -142 3 -143 25
-140 21 3 22 8 27 143 l5 140 28 3 c23 3 28 8 25 25 -3 20 -9 22 -85 25 -82 3
-83 3 -83 -22z"/>
<path d="M5660 1455 c0 -7 56 -242 71 -298 8 -31 14 -38 32 -35 18 2 24 15 38
76 9 40 19 75 22 78 2 3 13 -30 23 -73 16 -66 22 -78 41 -81 17 -3 24 3 29 25
4 15 22 87 40 160 19 72 34 136 34 143 0 6 -11 10 -27 8 -25 -3 -29 -9 -48
-85 -11 -45 -23 -84 -26 -88 -3 -3 -12 30 -18 72 -17 104 -17 103 -45 103 -28
0 -29 -3 -47 -108 -7 -39 -15 -70 -18 -67 -2 3 -14 43 -25 88 -20 76 -23 82
-48 85 -16 2 -28 1 -28 -3z"/>
<path d="M6425 1448 c-8 -27 -65 -291 -65 -304 0 -23 47 -17 53 6 4 15 14 20
40 20 27 0 37 -5 42 -20 4 -13 15 -20 31 -20 13 0 24 1 24 3 0 3 -56 263 -65
305 -4 15 -13 22 -31 22 -13 0 -26 -6 -29 -12z m44 -195 c1 -17 -5 -23 -19
-23 -21 0 -21 10 -2 75 5 18 6 18 13 -5 4 -14 7 -35 8 -47z"/>
<path d="M6915 1448 c-3 -7 -4 -83 -3 -168 l3 -155 25 0 c24 0 25 4 30 63 l5
64 32 -66 c28 -55 37 -66 58 -66 32 0 32 6 -7 84 l-31 64 27 33 c24 28 27 40
23 72 -8 57 -35 79 -101 85 -42 3 -57 1 -61 -10z m103 -86 c4 -35 -11 -62 -34
-62 -10 0 -14 14 -14 51 0 47 2 50 23 47 17 -2 23 -11 25 -36z"/>
<path d="M7460 1295 l0 -165 71 0 70 0 -3 28 c-3 24 -7 27 -46 30 l-43 3 3 42
c3 41 4 42 43 47 32 4 40 9 40 25 0 16 -8 21 -40 25 -31 4 -41 10 -43 26 -4
29 23 54 59 54 24 0 29 4 29 25 0 24 -2 25 -70 25 l-70 0 0 -165z"/>
</g>
</svg>
